<?xml version="1.0" standalone="no"?>
<!DOCTYPE svg PUBLIC "-//W3C//DTD SVG 20010904//EN"
 "http://www.w3.org/TR/2001/REC-SVG-20010904/DTD/svg10.dtd">

<svg version="1.0" xmlns="http://www.w3.org/2000/svg"
 width="941.000000pt" height="970.000000pt" viewBox="0 0 941.000000 970.000000"
 preserveAspectRatio="xMidYMid meet">

    <g transform="translate(0.000000,970.000000) scale(0.100000,-0.100000)" fill="black" stroke="none">
        <path d="M4608 9590 c-32 -5 -93 -24 -135 -41 -43 -18 -931 -459 -1973 -980
        -2088 -1044 -1958 -972 -2056 -1120 -26 -39 -58 -105 -73 -147 l-26 -77 0
        -2390 c0 -2292 1 -2392 18 -2450 31 -101 87 -195 157 -265 60 -60 89 -77 350
        -212 361 -185 2783 -1395 3277 -1637 414 -203 459 -218 593 -206 41 4 102 16
        135 26 33 10 929 452 1992 983 l1932 965 69 68 c80 79 132 164 164 266 l23 72
        0 2385 0 2385 -23 72 c-32 103 -85 188 -166 267 l-70 68 -1925 962 c-1089 544
        -1956 971 -1996 984 -83 25 -188 34 -267 22z m1672 -2050 l1580 -790 0 -1920
        0 -1920 -1580 -790 -1580 -790 -1058 529 -1057 530 713 0 712 1 0 1676 0 1676
        353 -5 c382 -5 481 -16 651 -72 222 -73 392 -207 474 -375 73 -147 86 -215 86
        -440 -1 -178 -3 -204 -26 -291 -58 -214 -169 -364 -352 -475 -200 -121 -473
        -173 -908 -174 l-188 0 0 -759 c0 -715 1 -760 18 -765 43 -12 596 -17 737 -6
        682 52 1234 300 1671 752 362 375 561 792 640 1343 27 185 24 593 -4 780 -75
        481 -257 860 -572 1188 -367 383 -850 627 -1455 737 -295 53 -283 53 -1480 59
        l-1120 6 1080 542 c594 298 1081 542 1083 542 1 1 713 -355 1582 -789z m-3840
        -2710 l0 -2370 -450 225 -450 225 0 1920 0 1920 448 224 c246 124 448 225 450
        225 1 1 2 -1066 2 -2369z"/>
    </g>
</svg>
